<svg xmlns="http://www.w3.org/2000/svg" xmlns:xlink="http://www.w3.org/1999/xlink" width="1080" zoomAndPan="magnify" viewBox="0 0 810 809.999993" height="1080" preserveAspectRatio="xMidYMid meet" version="1.0"><defs><g/></defs><g fill="#ffde59" fill-opacity="1"><g transform="translate(0.0000035, 120.499055)"><g><path d="M 43.546875 0 L 26.296875 0 C 24.941406 0 23.960938 -0.300781 23.359375 -0.90625 C 22.765625 -1.507812 22.46875 -2.484375 22.46875 -3.828125 L 22.46875 -56.09375 L 6.8125 -56.09375 C 5.46875 -56.09375 4.492188 -56.394531 3.890625 -57 C 3.285156 -57.601562 2.984375 -58.582031 2.984375 -59.9375 L 2.984375 -72.8125 C 2.984375 -74.164062 3.285156 -75.140625 3.890625 -75.734375 C 4.492188 -76.335938 5.46875 -76.640625 6.8125 -76.640625 L 63.015625 -76.640625 C 64.367188 -76.640625 65.347656 -76.335938 65.953125 -75.734375 C 66.554688 -75.140625 66.859375 -74.164062 66.859375 -72.8125 L 66.859375 -59.9375 C 66.859375 -58.582031 66.554688 -57.601562 65.953125 -57 C 65.347656 -56.394531 64.367188 -56.09375 63.015625 -56.09375 L 47.375 -56.09375 L 47.375 -3.828125 C 47.375 -2.484375 47.070312 -1.507812 46.46875 -0.90625 C 45.863281 -0.300781 44.890625 0 43.546875 0 Z M 43.546875 0 "/></g></g></g><g fill="#ffde59" fill-opacity="1"><g transform="translate(69.831625, 120.499055)"><g><path d="M 60.578125 0 L 11.171875 0 C 9.828125 0 8.851562 -0.300781 8.25 -0.90625 C 7.644531 -1.507812 7.34375 -2.484375 7.34375 -3.828125 L 7.34375 -72.8125 C 7.34375 -74.164062 7.644531 -75.140625 8.25 -75.734375 C 8.851562 -76.335938 9.828125 -76.640625 11.171875 -76.640625 L 60.578125 -76.640625 C 61.921875 -76.640625 62.894531 -76.335938 63.5 -75.734375 C 64.101562 -75.140625 64.40625 -74.164062 64.40625 -72.8125 L 64.40625 -60.359375 C 64.40625 -59.015625 64.101562 -58.039062 63.5 -57.4375 C 62.894531 -56.832031 61.921875 -56.53125 60.578125 -56.53125 L 31.1875 -56.53125 L 31.1875 -48.328125 L 51.953125 -48.328125 C 53.296875 -48.328125 54.269531 -48.023438 54.875 -47.421875 C 55.476562 -46.816406 55.78125 -45.84375 55.78125 -44.5 L 55.78125 -33.109375 C 55.78125 -31.753906 55.476562 -30.773438 54.875 -30.171875 C 54.269531 -29.578125 53.296875 -29.28125 51.953125 -29.28125 L 31.1875 -29.28125 L 31.1875 -20.125 L 60.578125 -20.125 C 61.921875 -20.125 62.894531 -19.820312 63.5 -19.21875 C 64.101562 -18.613281 64.40625 -17.632812 64.40625 -16.28125 L 64.40625 -3.828125 C 64.40625 -2.484375 64.101562 -1.507812 63.5 -0.90625 C 62.894531 -0.300781 61.921875 0 60.578125 0 Z M 60.578125 0 "/></g></g></g><g fill="#ffde59" fill-opacity="1"><g transform="translate(139.450341, 120.499055)"><g><path d="M 58.34375 0 L 32.359375 0 C 23.492188 0 16.910156 -1.769531 12.609375 -5.3125 C 8.316406 -8.863281 6.171875 -14.332031 6.171875 -21.71875 L 6.171875 -54.828125 C 6.171875 -62.203125 8.316406 -67.679688 12.609375 -71.265625 C 16.910156 -74.847656 23.492188 -76.640625 32.359375 -76.640625 L 58.34375 -76.640625 C 59.6875 -76.640625 60.660156 -76.335938 61.265625 -75.734375 C 61.867188 -75.140625 62.171875 -74.164062 62.171875 -72.8125 L 62.171875 -59.9375 C 62.171875 -58.582031 61.867188 -57.601562 61.265625 -57 C 60.660156 -56.394531 59.6875 -56.09375 58.34375 -56.09375 L 36.9375 -56.09375 C 34.738281 -56.09375 33.109375 -55.648438 32.046875 -54.765625 C 30.984375 -53.878906 30.453125 -52.550781 30.453125 -50.78125 L 30.453125 -25.4375 C 30.453125 -23.664062 30.984375 -22.367188 32.046875 -21.546875 C 33.109375 -20.734375 34.738281 -20.328125 36.9375 -20.328125 L 58.34375 -20.328125 C 59.6875 -20.328125 60.660156 -20.023438 61.265625 -19.421875 C 61.867188 -18.816406 62.171875 -17.84375 62.171875 -16.5 L 62.171875 -3.828125 C 62.171875 -2.484375 61.867188 -1.507812 61.265625 -0.90625 C 60.660156 -0.300781 59.6875 0 58.34375 0 Z M 58.34375 0 "/></g></g></g><g fill="#ffde59" fill-opacity="1"><g transform="translate(206.301337, 120.499055)"><g><path d="M 27.140625 0 L 11.171875 0 C 9.828125 0 8.851562 -0.300781 8.25 -0.90625 C 7.644531 -1.507812 7.34375 -2.484375 7.34375 -3.828125 L 7.34375 -72.8125 C 7.34375 -74.164062 7.644531 -75.140625 8.25 -75.734375 C 8.851562 -76.335938 9.828125 -76.640625 11.171875 -76.640625 L 22.25 -76.640625 C 23.59375 -76.640625 24.742188 -76.425781 25.703125 -76 C 26.660156 -75.582031 27.601562 -74.835938 28.53125 -73.765625 L 49.1875 -50.140625 L 49.1875 -72.8125 C 49.1875 -74.164062 49.484375 -75.140625 50.078125 -75.734375 C 50.679688 -76.335938 51.660156 -76.640625 53.015625 -76.640625 L 68.984375 -76.640625 C 70.328125 -76.640625 71.300781 -76.335938 71.90625 -75.734375 C 72.507812 -75.140625 72.8125 -74.164062 72.8125 -72.8125 L 72.8125 -3.828125 C 72.8125 -2.484375 72.507812 -1.507812 71.90625 -0.90625 C 71.300781 -0.300781 70.328125 0 68.984375 0 L 53.015625 0 C 51.660156 0 50.679688 -0.300781 50.078125 -0.90625 C 49.484375 -1.507812 49.1875 -2.484375 49.1875 -3.828125 L 49.1875 -16.921875 L 30.984375 -38.96875 L 30.984375 -3.828125 C 30.984375 -2.484375 30.679688 -1.507812 30.078125 -0.90625 C 29.472656 -0.300781 28.492188 0 27.140625 0 Z M 27.140625 0 "/></g></g></g><g fill="#ffde59" fill-opacity="1"><g transform="translate(286.458679, 120.499055)"><g><path d="M 72.28125 -20.125 C 72.28125 -16.851562 71.800781 -13.882812 70.84375 -11.21875 C 69.882812 -8.5625 68.179688 -6.289062 65.734375 -4.40625 C 63.285156 -2.53125 59.914062 -1.0625 55.625 0 C 51.332031 1.0625 45.882812 1.59375 39.28125 1.59375 C 32.675781 1.59375 27.207031 1.0625 22.875 0 C 18.550781 -1.0625 15.164062 -2.53125 12.71875 -4.40625 C 10.269531 -6.289062 8.566406 -8.5625 7.609375 -11.21875 C 6.648438 -13.882812 6.171875 -16.851562 6.171875 -20.125 L 6.171875 -56.421875 C 6.171875 -59.679688 6.648438 -62.640625 7.609375 -65.296875 C 8.566406 -67.960938 10.269531 -70.253906 12.71875 -72.171875 C 15.164062 -74.085938 18.550781 -75.578125 22.875 -76.640625 C 27.207031 -77.710938 32.675781 -78.25 39.28125 -78.25 C 45.882812 -78.25 51.332031 -77.710938 55.625 -76.640625 C 59.914062 -75.578125 63.285156 -74.085938 65.734375 -72.171875 C 68.179688 -70.253906 69.882812 -67.960938 70.84375 -65.296875 C 71.800781 -62.640625 72.28125 -59.679688 72.28125 -56.421875 Z M 30.34375 -23.953125 C 30.34375 -22.535156 30.875 -21.347656 31.9375 -20.390625 C 33 -19.429688 35.445312 -18.953125 39.28125 -18.953125 C 43.113281 -18.953125 45.5625 -19.429688 46.625 -20.390625 C 47.6875 -21.347656 48.21875 -22.535156 48.21875 -23.953125 L 48.21875 -52.59375 C 48.21875 -53.9375 47.6875 -55.085938 46.625 -56.046875 C 45.5625 -57.003906 43.113281 -57.484375 39.28125 -57.484375 C 35.445312 -57.484375 33 -57.003906 31.9375 -56.046875 C 30.875 -55.085938 30.34375 -53.9375 30.34375 -52.59375 Z M 30.34375 -23.953125 "/></g></g></g><g fill="#ffde59" fill-opacity="1"><g transform="translate(364.912795, 120.499055)"><g><path d="M 52.0625 0 L 11.171875 0 C 9.828125 0 8.851562 -0.300781 8.25 -0.90625 C 7.644531 -1.507812 7.34375 -2.484375 7.34375 -3.828125 L 7.34375 -72.8125 C 7.34375 -74.164062 7.644531 -75.140625 8.25 -75.734375 C 8.851562 -76.335938 9.828125 -76.640625 11.171875 -76.640625 L 45.140625 -76.640625 C 52.085938 -76.640625 57.226562 -75.304688 60.5625 -72.640625 C 63.90625 -69.984375 65.578125 -65.890625 65.578125 -60.359375 L 65.578125 -55.25 C 65.578125 -52.269531 65.0625 -49.835938 64.03125 -47.953125 C 63 -46.078125 61.421875 -44.675781 59.296875 -43.75 C 63.835938 -43.320312 67.207031 -41.757812 69.40625 -39.0625 C 71.601562 -36.363281 72.703125 -32.425781 72.703125 -27.25 L 72.703125 -17.453125 C 72.703125 -11.492188 71.015625 -7.09375 67.640625 -4.25 C 64.273438 -1.414062 59.082031 0 52.0625 0 Z M 31.296875 -58.546875 L 31.296875 -47.046875 L 40.34375 -47.046875 C 41.695312 -47.046875 42.707031 -47.398438 43.375 -48.109375 C 44.050781 -48.828125 44.390625 -49.894531 44.390625 -51.3125 L 44.390625 -54.296875 C 44.390625 -55.710938 44.050781 -56.773438 43.375 -57.484375 C 42.707031 -58.191406 41.695312 -58.546875 40.34375 -58.546875 Z M 31.296875 -30.65625 L 31.296875 -18.09375 L 45.140625 -18.09375 C 46.484375 -18.09375 47.492188 -18.445312 48.171875 -19.15625 C 48.847656 -19.863281 49.1875 -20.929688 49.1875 -22.359375 L 49.1875 -26.5 C 49.1875 -27.925781 48.847656 -28.972656 48.171875 -29.640625 C 47.492188 -30.316406 46.484375 -30.65625 45.140625 -30.65625 Z M 31.296875 -30.65625 "/></g></g></g><g fill="#ffde59" fill-opacity="1"><g transform="translate(442.089523, 120.499055)"><g><path d="M 65.359375 0 L 11.171875 0 C 9.828125 0 8.851562 -0.300781 8.25 -0.90625 C 7.644531 -1.507812 7.34375 -2.484375 7.34375 -3.828125 L 7.34375 -72.8125 C 7.34375 -74.164062 7.644531 -75.140625 8.25 -75.734375 C 8.851562 -76.335938 9.828125 -76.640625 11.171875 -76.640625 L 27.671875 -76.640625 C 29.023438 -76.640625 30.003906 -76.335938 30.609375 -75.734375 C 31.210938 -75.140625 31.515625 -74.164062 31.515625 -72.8125 L 31.515625 -20.125 L 46.09375 -20.125 L 46.09375 -37.359375 C 46.09375 -38.710938 46.394531 -39.691406 47 -40.296875 C 47.601562 -40.898438 48.578125 -41.203125 49.921875 -41.203125 L 65.359375 -41.203125 C 66.710938 -41.203125 67.6875 -40.898438 68.28125 -40.296875 C 68.882812 -39.691406 69.1875 -38.710938 69.1875 -37.359375 L 69.1875 -3.828125 C 69.1875 -2.484375 68.882812 -1.507812 68.28125 -0.90625 C 67.6875 -0.300781 66.710938 0 65.359375 0 Z M 65.359375 0 "/></g></g></g><g fill="#ffde59" fill-opacity="1"><g transform="translate(516.072707, 120.499055)"><g><path d="M 72.28125 -20.125 C 72.28125 -16.851562 71.800781 -13.882812 70.84375 -11.21875 C 69.882812 -8.5625 68.179688 -6.289062 65.734375 -4.40625 C 63.285156 -2.53125 59.914062 -1.0625 55.625 0 C 51.332031 1.0625 45.882812 1.59375 39.28125 1.59375 C 32.675781 1.59375 27.207031 1.0625 22.875 0 C 18.550781 -1.0625 15.164062 -2.53125 12.71875 -4.40625 C 10.269531 -6.289062 8.566406 -8.5625 7.609375 -11.21875 C 6.648438 -13.882812 6.171875 -16.851562 6.171875 -20.125 L 6.171875 -56.421875 C 6.171875 -59.679688 6.648438 -62.640625 7.609375 -65.296875 C 8.566406 -67.960938 10.269531 -70.253906 12.71875 -72.171875 C 15.164062 -74.085938 18.550781 -75.578125 22.875 -76.640625 C 27.207031 -77.710938 32.675781 -78.25 39.28125 -78.25 C 45.882812 -78.25 51.332031 -77.710938 55.625 -76.640625 C 59.914062 -75.578125 63.285156 -74.085938 65.734375 -72.171875 C 68.179688 -70.253906 69.882812 -67.960938 70.84375 -65.296875 C 71.800781 -62.640625 72.28125 -59.679688 72.28125 -56.421875 Z M 30.34375 -23.953125 C 30.34375 -22.535156 30.875 -21.347656 31.9375 -20.390625 C 33 -19.429688 35.445312 -18.953125 39.28125 -18.953125 C 43.113281 -18.953125 45.5625 -19.429688 46.625 -20.390625 C 47.6875 -21.347656 48.21875 -22.535156 48.21875 -23.953125 L 48.21875 -52.59375 C 48.21875 -53.9375 47.6875 -55.085938 46.625 -56.046875 C 45.5625 -57.003906 43.113281 -57.484375 39.28125 -57.484375 C 35.445312 -57.484375 33 -57.003906 31.9375 -56.046875 C 30.875 -55.085938 30.34375 -53.9375 30.34375 -52.59375 Z M 30.34375 -23.953125 "/></g></g></g><g fill="#ffde59" fill-opacity="1"><g transform="translate(594.526823, 120.499055)"><g><path d="M 58.34375 0 L 32.359375 0 C 23.492188 0 16.910156 -1.769531 12.609375 -5.3125 C 8.316406 -8.863281 6.171875 -14.332031 6.171875 -21.71875 L 6.171875 -54.828125 C 6.171875 -62.203125 8.316406 -67.679688 12.609375 -71.265625 C 16.910156 -74.847656 23.492188 -76.640625 32.359375 -76.640625 L 58.34375 -76.640625 C 59.6875 -76.640625 60.660156 -76.335938 61.265625 -75.734375 C 61.867188 -75.140625 62.171875 -74.164062 62.171875 -72.8125 L 62.171875 -59.9375 C 62.171875 -58.582031 61.867188 -57.601562 61.265625 -57 C 60.660156 -56.394531 59.6875 -56.09375 58.34375 -56.09375 L 36.9375 -56.09375 C 34.738281 -56.09375 33.109375 -55.648438 32.046875 -54.765625 C 30.984375 -53.878906 30.453125 -52.550781 30.453125 -50.78125 L 30.453125 -25.4375 C 30.453125 -23.664062 30.984375 -22.367188 32.046875 -21.546875 C 33.109375 -20.734375 34.738281 -20.328125 36.9375 -20.328125 L 58.34375 -20.328125 C 59.6875 -20.328125 60.660156 -20.023438 61.265625 -19.421875 C 61.867188 -18.816406 62.171875 -17.84375 62.171875 -16.5 L 62.171875 -3.828125 C 62.171875 -2.484375 61.867188 -1.507812 61.265625 -0.90625 C 60.660156 -0.300781 59.6875 0 58.34375 0 Z M 58.34375 0 "/></g></g></g><g fill="#ffde59" fill-opacity="1"><g transform="translate(661.377819, 120.499055)"><g><path d="M 27.671875 0 L 11.171875 0 C 9.828125 0 8.851562 -0.300781 8.25 -0.90625 C 7.644531 -1.507812 7.34375 -2.484375 7.34375 -3.828125 L 7.34375 -72.8125 C 7.34375 -74.164062 7.644531 -75.140625 8.25 -75.734375 C 8.851562 -76.335938 9.828125 -76.640625 11.171875 -76.640625 L 27.671875 -76.640625 C 29.023438 -76.640625 30.003906 -76.335938 30.609375 -75.734375 C 31.210938 -75.140625 31.515625 -74.164062 31.515625 -72.8125 L 31.515625 -48.328125 L 35.765625 -48.328125 L 46.734375 -73.140625 C 47.234375 -74.410156 47.90625 -75.3125 48.75 -75.84375 C 49.601562 -76.375 50.707031 -76.640625 52.0625 -76.640625 L 68.453125 -76.640625 C 69.660156 -76.640625 70.472656 -76.335938 70.890625 -75.734375 C 71.316406 -75.140625 71.285156 -74.273438 70.796875 -73.140625 L 59.9375 -48.328125 C 63.90625 -48.117188 67.078125 -46.71875 69.453125 -44.125 C 71.835938 -41.53125 73.03125 -38.109375 73.03125 -33.859375 L 73.03125 -3.828125 C 73.03125 -2.484375 72.726562 -1.507812 72.125 -0.90625 C 71.519531 -0.300781 70.539062 0 69.1875 0 L 52.796875 0 C 51.453125 0 50.476562 -0.300781 49.875 -0.90625 C 49.269531 -1.507812 48.96875 -2.484375 48.96875 -3.828125 L 48.96875 -24.59375 C 48.96875 -25.726562 48.679688 -26.613281 48.109375 -27.25 C 47.546875 -27.882812 46.695312 -28.203125 45.5625 -28.203125 L 31.515625 -28.203125 L 31.515625 -3.828125 C 31.515625 -2.484375 31.210938 -1.507812 30.609375 -0.90625 C 30.003906 -0.300781 29.023438 0 27.671875 0 Z M 27.671875 0 "/></g></g></g><g fill="#ffde59" fill-opacity="1"><g transform="translate(740.789989, 120.499055)"><g><path d="M 42.90625 0 L 9.265625 0 C 7.910156 0 6.929688 -0.300781 6.328125 -0.90625 C 5.722656 -1.507812 5.421875 -2.484375 5.421875 -3.828125 L 5.421875 -16.28125 C 5.421875 -17.632812 5.722656 -18.613281 6.328125 -19.21875 C 6.929688 -19.820312 7.910156 -20.125 9.265625 -20.125 L 37.890625 -20.125 C 38.816406 -20.125 39.507812 -20.421875 39.96875 -21.015625 C 40.4375 -21.617188 40.671875 -22.347656 40.671875 -23.203125 C 40.671875 -24.410156 40.4375 -25.296875 39.96875 -25.859375 C 39.507812 -26.429688 38.816406 -26.753906 37.890625 -26.828125 L 21.921875 -29.0625 C 16.960938 -29.769531 12.972656 -31.398438 9.953125 -33.953125 C 6.929688 -36.515625 5.421875 -40.773438 5.421875 -46.734375 L 5.421875 -57.90625 C 5.421875 -63.9375 7.375 -68.566406 11.28125 -71.796875 C 15.1875 -75.023438 20.582031 -76.640625 27.46875 -76.640625 L 57.265625 -76.640625 C 58.617188 -76.640625 59.597656 -76.335938 60.203125 -75.734375 C 60.804688 -75.140625 61.109375 -74.164062 61.109375 -72.8125 L 61.109375 -60.140625 C 61.109375 -58.796875 60.804688 -57.820312 60.203125 -57.21875 C 59.597656 -56.613281 58.617188 -56.3125 57.265625 -56.3125 L 32.46875 -56.3125 C 31.539062 -56.3125 30.828125 -56.007812 30.328125 -55.40625 C 29.835938 -54.800781 29.59375 -54.039062 29.59375 -53.125 C 29.59375 -52.195312 29.835938 -51.410156 30.328125 -50.765625 C 30.828125 -50.128906 31.539062 -49.78125 32.46875 -49.71875 L 48.328125 -47.578125 C 53.296875 -46.867188 57.304688 -45.238281 60.359375 -42.6875 C 63.410156 -40.132812 64.9375 -35.875 64.9375 -29.90625 L 64.9375 -18.734375 C 64.9375 -12.703125 62.96875 -8.070312 59.03125 -4.84375 C 55.09375 -1.613281 49.71875 0 42.90625 0 Z M 42.90625 0 "/></g></g></g></svg>